<?xml version="1.0" encoding="utf-8"?>
<!-- Generator: Adobe Illustrator 19.0.0, SVG Export Plug-In . SVG Version: 6.00 Build 0)  -->
<svg version="1.1" id="Layer_1" xmlns="http://www.w3.org/2000/svg" xmlns:xlink="http://www.w3.org/1999/xlink" x="0px" y="0px"
	 viewBox="-281 369 48 46" style="enable-background:new -281 369 48 46;" xml:space="preserve">
<title>1-shopping cart</title>
<g>
	<path d="M-234,401h-46c-0.6,0-1-0.4-1-1v-22c0-2.8,2.2-5,5-5h12v2h-12c-1.7,0-3,1.3-3,3v21h44v-21c0-1.7-1.3-3-3-3h-13v-2h13
		c2.8,0,5,2.2,5,5v22C-233,400.6-233.4,401-234,401z"/>
	<path d="M-238,409h-38c-2.8,0-5-2.2-5-5v-4c0-0.6,0.4-1,1-1h46c0.6,0,1,0.4,1,1v4C-233,406.8-235.2,409-238,409z M-279,401v3
		c0,1.7,1.3,3,3,3h38c1.7,0,3-1.3,3-3v-3H-279z"/>
	<rect x="-260" y="403" width="6" height="2"/>
	<path d="M-249.7,415h-14.6c-0.6,0-1-0.4-1-1c0-0.3,0.1-0.5,0.3-0.7c1.4-1.5,1.9-3.5,2.3-5.5l2,0.4c-0.3,1.7-0.8,3.3-1.6,4.8h10.7
		c-0.8-1.5-1.3-3.1-1.6-4.8l2-0.4c0.4,2.1,0.9,4,2.3,5.5c0.4,0.4,0.4,1,0,1.4C-249.2,414.9-249.4,415-249.7,415z"/>
	<rect x="-267" y="413" width="20" height="2"/>
	<path d="M-261,397c-1.7,0-3-1.3-3-3s1.3-3,3-3s3,1.3,3,3S-259.3,397-261,397z M-261,393c-0.6,0-1,0.4-1,1s0.4,1,1,1s1-0.4,1-1
		S-260.4,393-261,393z"/>
	<path d="M-252,397c-1.7,0-3-1.3-3-3s1.3-3,3-3s3,1.3,3,3S-250.3,397-252,397z M-252,393c-0.6,0-1,0.4-1,1s0.4,1,1,1s1-0.4,1-1
		S-251.4,393-252,393z"/>
	<rect x="-259" y="393" width="5" height="2"/>
	<rect x="-250" y="393" width="2" height="2"/>
	<path d="M-249,390h-16c-0.5,0-0.9-0.3-1-0.8l-2-8c-0.1-0.5,0.2-1.1,0.7-1.2c0.1,0,0.2,0,0.2,0h4v2h-2.7l1.5,6h14.4l1.5-6h-2.7v-2h4
		c0.6,0,1,0.4,1,1c0,0.1,0,0.2,0,0.2l-2,8C-248.1,389.7-248.5,390-249,390z"/>
	<path d="M-263,395h-2c-0.6,0-1-0.4-1-1v-5h2v4h1V395z"/>
	<path d="M-257,385c-4.4,0-8-3.6-8-8s3.6-8,8-8s8,3.6,8,8C-249,381.4-252.6,385-257,385z M-257,371c-3.3,0-6,2.7-6,6s2.7,6,6,6
		c3.3,0,6-2.7,6-6C-251,373.7-253.7,371-257,371z"/>
	<path d="M-254.7,376.7l-2.3-2.3l-2.3,2.3l-1.4-1.4l3-3c0.4-0.4,1-0.4,1.4,0l3,3L-254.7,376.7z"/>
	<rect x="-258" y="374" width="2" height="7"/>
	<path d="M-267.9,381.3l-0.8-2.3h-3.3v-2h4c0.4,0,0.8,0.3,0.9,0.7l1,3L-267.9,381.3z"/>
	<path d="M-238,395h-8v-2h7v-10h-5v-2h6c0.6,0,1,0.4,1,1v12C-237,394.6-237.4,395-238,395z"/>
	<path d="M-268,395h-8c-0.6,0-1-0.4-1-1v-12c0-0.6,0.4-1,1-1h6v2h-5v10h7V395z"/>
</g>
</svg>
