<?xml version="1.0" encoding="utf-8"?>
<!-- Generator: Adobe Illustrator 19.0.0, SVG Export Plug-In . SVG Version: 6.00 Build 0)  -->
<svg version="1.1" id="Layer_1" xmlns="http://www.w3.org/2000/svg" xmlns:xlink="http://www.w3.org/1999/xlink" x="0px" y="0px"
	 viewBox="-259.9 341.3 90.8 88.9" style="enable-background:new -259.9 341.3 90.8 88.9;" xml:space="preserve">
<g>
	<g>
		<path d="M-248.3,348.7h-0.2c-1.2,0-2.1,0.9-2.1,2.1s0.9,2.1,2.1,2.1h0.2c1.2,0,2.1-0.9,2.1-2.1S-247.1,348.7-248.3,348.7z"/>
		<path d="M-228.3,348.7h-0.2c-1.2,0-2.1,0.9-2.1,2.1s0.9,2.1,2.1,2.1h0.2c1.2,0,2.1-0.9,2.1-2.1S-227.2,348.7-228.3,348.7z"/>
		<path d="M-238.3,348.7h-0.2c-1.2,0-2.1,0.9-2.1,2.1s0.9,2.1,2.1,2.1h0.2c1.2,0,2.1-0.9,2.1-2.1S-237.1,348.7-238.3,348.7z"/>
		<path d="M-203,407.1h-52.7v-46.7h72.2v25c0,1.2,0.9,2.1,2.1,2.1s2.1-0.9,2.1-2.1v-29.2h0v-14.9h-80.6v14.9v4.2v50.9h56.9
			c1.2,0,2.1-0.9,2.1-2.1C-200.9,408-201.9,407.1-203,407.1z M-255.7,345.5h72.2v10.7h-72.2V345.5z"/>
		<path d="M-245.8,394.2c0,0.8,0.5,1.5,1.2,1.9l18.9,9.1c0.3,0.1,0.6,0.2,0.9,0.2c0.3,0,0.6-0.1,0.9-0.2c0,0,0,0,0,0l18.9-9.1
			c0.7-0.4,1.2-1.1,1.2-1.9v-20.2c0,0,0,0,0-0.1c0-0.8-0.5-1.5-1.2-1.9l-18.9-9.1c-0.6-0.3-1.2-0.3-1.8,0l-18.9,9.1
			c-0.1,0-0.1,0.1-0.2,0.1c0,0,0,0,0,0c0,0,0,0-0.1,0c-0.1,0.1-0.2,0.2-0.3,0.3c0,0-0.1,0.1-0.1,0.1c-0.1,0.1-0.2,0.2-0.2,0.3
			c0,0.1-0.1,0.1-0.1,0.2c0,0.1-0.1,0.2-0.1,0.3c0,0.1,0,0.3-0.1,0.4c0,0,0,0.1,0,0.1c0,0,0,0,0,0c0,0,0,0,0,0
			C-245.8,373.9-245.8,394.2-245.8,394.2z M-210.8,373.9l-2.8,1.3l-11.2,5.4l-4.6-2.2l14-6.7L-210.8,373.9z M-241.6,377.2l14.7,7.1
			v15.6l-14.7-7.1V377.2z M-222.7,399.9v-15.6l10.2-4.9l4.5-2.1v15.6L-222.7,399.9z M-224.8,367.1l4.6,2.2l-14,6.7l-4.6-2.2
			L-224.8,367.1z"/>
		<path d="M-230.8,385.4l-5.6-2.7c-1-0.5-2.3-0.1-2.8,1c-0.5,1-0.1,2.3,1,2.8l5.6,2.7c0.3,0.1,0.6,0.2,0.9,0.2
			c0.8,0,1.5-0.4,1.9-1.2C-229.3,387.2-229.8,385.9-230.8,385.4z"/>
		<path d="M-169.7,405.8l-23.9-24.3c-0.6-0.6-1.5-0.8-2.3-0.5s-1.3,1.1-1.3,1.9l0.1,34.1c0,0.8,0.5,1.6,1.3,1.9
			c0.3,0.1,0.6,0.2,0.8,0.2c0.5,0,1-0.2,1.4-0.6l7.9-7.4l7.7,17.6c0.3,0.8,1.1,1.3,1.9,1.3c0.3,0,0.6-0.1,0.8-0.2
			c1.1-0.5,1.6-1.7,1.1-2.8l-7.6-17.5l10.7-0.4c0.8,0,1.6-0.5,1.9-1.3C-168.9,407.3-169.1,406.4-169.7,405.8z M-185,405.6
			c-0.5,0-1,0.2-1.4,0.6l-6.6,6.1l-0.1-24.2l17,17.2L-185,405.6z"/>
	</g>
</g>
</svg>
