<?xml version="1.0" encoding="utf-8"?>
<!-- Generator: Adobe Illustrator 19.0.0, SVG Export Plug-In . SVG Version: 6.00 Build 0)  -->
<svg version="1.1" id="Layer_1" xmlns="http://www.w3.org/2000/svg" xmlns:xlink="http://www.w3.org/1999/xlink" x="0px" y="0px"
	 viewBox="-260 375.3 38 40.7" style="enable-background:new -260 375.3 38 40.7;" xml:space="preserve">
<title>17-Qr code</title>
<g>
	<path d="M-237,398h-4c-0.6,0-1-0.4-1-1v-4c0-0.6,0.4-1,1-1h4c0.6,0,1,0.4,1,1v4C-236,397.6-236.4,398-237,398z M-240,396h2v-2h-2
		V396z"/>
	<path d="M-227,412h-4c-0.6,0-1-0.4-1-1v-4c0-0.6,0.4-1,1-1h4c0.6,0,1,0.4,1,1v4C-226,411.6-226.4,412-227,412z M-230,410h2v-2h-2
		V410z"/>
	<path d="M-227,398h-3v-2h2v-2h-2v-2h3c0.6,0,1,0.4,1,1v4C-226,397.6-226.4,398-227,398z"/>
	<path d="M-236,404h-2c-0.6,0-1-0.4-1-1v-1h-3v-2h4c0.6,0,1,0.4,1,1v1h1V404z"/>
	<path d="M-238,412h-3c-0.6,0-1-0.4-1-1v-4c0-0.6,0.4-1,1-1h3v2h-2v2h2V412z"/>
	<rect x="-234" y="392" width="2" height="2"/>
	<rect x="-234" y="396" width="2" height="2"/>
	<rect x="-228" y="400" width="2" height="4"/>
	<rect x="-232" y="400" width="2" height="2"/>
	<rect x="-234" y="402" width="2" height="2"/>
	<rect x="-236" y="406" width="2" height="2"/>
	<rect x="-236" y="410" width="2" height="2"/>
	<path d="M-223,416h-22c-0.6,0-1-0.4-1-1v-26c0-0.6,0.4-1,1-1h22c0.6,0,1,0.4,1,1v26C-222,415.6-222.4,416-223,416z M-244,414h20
		v-24h-20V414z"/>
	<path d="M-253,394h-6c-0.6,0-1-0.4-1-1v-3h2v2h4v-4h-5c-0.6,0-1-0.4-1-1v-6c0-0.6,0.4-1,1-1h6c0.6,0,1,0.4,1,1v3h-2v-2h-4v4h5
		c0.6,0,1,0.4,1,1v6C-252,393.6-252.4,394-253,394z"/>
	<rect x="-257" y="378" width="2" height="3"/>
	<rect x="-257" y="393" width="2" height="3"/>
	<path d="M-243.7,384.7l-4-4c-0.4-0.4-0.4-1,0-1.4l4-4l1.4,1.4l-3.3,3.3l3.3,3.3L-243.7,384.7z"/>
	<path d="M-236,390h-2v-9h-9v-2h10c0.6,0,1,0.4,1,1V390z"/>
	<path d="M-252.3,413.7l-1.4-1.4l3.3-3.3l-3.3-3.3l1.4-1.4l4,4c0.4,0.4,0.4,1,0,1.4L-252.3,413.7z"/>
	<path d="M-249,410h-10c-0.6,0-1-0.4-1-1v-10h2v9h9V410z"/>
</g>
</svg>
